<mxfile host="www.draw.io" modified="2019-11-13T15:33:19.158Z" agent="Mozilla/5.0 (Windows NT 10.0; Win64; x64) AppleWebKit/537.36 (KHTML, like Gecko) Chrome/78.0.3904.97 Safari/537.36" etag="oASDzUcTgFT9NzvfSA15" version="12.2.4" type="github" pages="1">
  <diagram id="vJKXVsY2cB2Z5sYzTON5" name="Page-1">
    <mxGraphModel dx="1117" dy="626" grid="1" gridSize="10" guides="1" tooltips="1" connect="1" arrows="1" fold="1" page="1" pageScale="1" pageWidth="850" pageHeight="1100" math="0" shadow="0">
      <root>
        <mxCell id="0"/>
        <mxCell id="1" parent="0"/>
        <mxCell id="JRNA4fRLngx2gmoM5VyH-52" value="" style="ellipse;whiteSpace=wrap;html=1;strokeColor=#000000;" parent="1" vertex="1">
          <mxGeometry x="443.5" y="515.5" width="64" height="40" as="geometry"/>
        </mxCell>
        <mxCell id="JRNA4fRLngx2gmoM5VyH-2" value="Problems" style="rounded=0;whiteSpace=wrap;html=1;" parent="1" vertex="1">
          <mxGeometry x="527.5" y="460.5" width="70" height="30" as="geometry"/>
        </mxCell>
        <mxCell id="JRNA4fRLngx2gmoM5VyH-4" value="&lt;u&gt;title&lt;/u&gt;" style="ellipse;whiteSpace=wrap;html=1;" parent="1" vertex="1">
          <mxGeometry x="590" y="406.5" width="55" height="30" as="geometry"/>
        </mxCell>
        <mxCell id="JRNA4fRLngx2gmoM5VyH-5" value="related&lt;br&gt;topics" style="ellipse;whiteSpace=wrap;html=1;fixDash=0;strokeColor=#000000;" parent="1" vertex="1">
          <mxGeometry x="448" y="520.5" width="55" height="30" as="geometry"/>
        </mxCell>
        <mxCell id="JRNA4fRLngx2gmoM5VyH-6" value="difficulty" style="ellipse;whiteSpace=wrap;html=1;" parent="1" vertex="1">
          <mxGeometry x="417" y="406.5" width="55" height="30" as="geometry"/>
        </mxCell>
        <mxCell id="JRNA4fRLngx2gmoM5VyH-9" value="" style="endArrow=none;html=1;exitX=0.5;exitY=0;exitDx=0;exitDy=0;entryX=1;entryY=0.5;entryDx=0;entryDy=0;" parent="1" source="JRNA4fRLngx2gmoM5VyH-2" target="JRNA4fRLngx2gmoM5VyH-6" edge="1">
          <mxGeometry width="50" height="50" relative="1" as="geometry">
            <mxPoint x="534" y="459.5" as="sourcePoint"/>
            <mxPoint x="467.5" y="421.5" as="targetPoint"/>
          </mxGeometry>
        </mxCell>
        <mxCell id="JRNA4fRLngx2gmoM5VyH-10" value="" style="endArrow=none;html=1;entryX=0.5;entryY=1;entryDx=0;entryDy=0;exitX=1;exitY=0.25;exitDx=0;exitDy=0;" parent="1" source="JRNA4fRLngx2gmoM5VyH-2" target="JRNA4fRLngx2gmoM5VyH-4" edge="1">
          <mxGeometry width="50" height="50" relative="1" as="geometry">
            <mxPoint x="575" y="459.5" as="sourcePoint"/>
            <mxPoint x="550" y="419.5" as="targetPoint"/>
          </mxGeometry>
        </mxCell>
        <mxCell id="JRNA4fRLngx2gmoM5VyH-12" value="" style="endArrow=none;html=1;entryX=1;entryY=0.5;entryDx=0;entryDy=0;exitX=0;exitY=0.5;exitDx=0;exitDy=0;" parent="1" source="JRNA4fRLngx2gmoM5VyH-2" target="JRNA4fRLngx2gmoM5VyH-52" edge="1">
          <mxGeometry width="50" height="50" relative="1" as="geometry">
            <mxPoint x="499" y="479.5" as="sourcePoint"/>
            <mxPoint x="601.5" y="474.5" as="targetPoint"/>
          </mxGeometry>
        </mxCell>
        <mxCell id="JRNA4fRLngx2gmoM5VyH-15" value="Member" style="rounded=0;whiteSpace=wrap;html=1;" parent="1" vertex="1">
          <mxGeometry x="307" y="160" width="70" height="30" as="geometry"/>
        </mxCell>
        <mxCell id="JRNA4fRLngx2gmoM5VyH-16" value="Staff" style="rounded=0;whiteSpace=wrap;html=1;" parent="1" vertex="1">
          <mxGeometry x="307" y="283" width="70" height="30" as="geometry"/>
        </mxCell>
        <mxCell id="JRNA4fRLngx2gmoM5VyH-17" value="Paying&lt;br&gt;Member" style="rounded=0;whiteSpace=wrap;html=1;" parent="1" vertex="1">
          <mxGeometry x="222" y="283" width="70" height="30" as="geometry"/>
        </mxCell>
        <mxCell id="JRNA4fRLngx2gmoM5VyH-19" value="O" style="ellipse;whiteSpace=wrap;html=1;aspect=fixed;" parent="1" vertex="1">
          <mxGeometry x="329.5" y="210" width="25" height="25" as="geometry"/>
        </mxCell>
        <mxCell id="JRNA4fRLngx2gmoM5VyH-20" value="" style="endArrow=none;html=1;exitX=0.5;exitY=0;exitDx=0;exitDy=0;" parent="1" source="JRNA4fRLngx2gmoM5VyH-19" edge="1">
          <mxGeometry width="50" height="50" relative="1" as="geometry">
            <mxPoint x="342" y="200" as="sourcePoint"/>
            <mxPoint x="342" y="190" as="targetPoint"/>
          </mxGeometry>
        </mxCell>
        <mxCell id="JRNA4fRLngx2gmoM5VyH-24" value="" style="edgeStyle=orthogonalEdgeStyle;fontSize=12;html=1;endArrow=ERmany;exitX=0.5;exitY=0;exitDx=0;exitDy=0;rounded=1;" parent="1" source="JRNA4fRLngx2gmoM5VyH-17" edge="1">
          <mxGeometry width="100" height="100" relative="1" as="geometry">
            <mxPoint x="292" y="261" as="sourcePoint"/>
            <mxPoint x="330" y="223" as="targetPoint"/>
            <Array as="points">
              <mxPoint x="257.5" y="223"/>
            </Array>
          </mxGeometry>
        </mxCell>
        <mxCell id="JRNA4fRLngx2gmoM5VyH-29" value="" style="fontSize=12;html=1;endArrow=ERmany;exitX=0.5;exitY=0;exitDx=0;exitDy=0;entryX=0.5;entryY=1;entryDx=0;entryDy=0;" parent="1" source="JRNA4fRLngx2gmoM5VyH-16" target="JRNA4fRLngx2gmoM5VyH-19" edge="1">
          <mxGeometry width="100" height="100" relative="1" as="geometry">
            <mxPoint x="397" y="280" as="sourcePoint"/>
            <mxPoint x="342" y="253" as="targetPoint"/>
          </mxGeometry>
        </mxCell>
        <mxCell id="JRNA4fRLngx2gmoM5VyH-33" value="last name" style="ellipse;whiteSpace=wrap;html=1;" parent="1" vertex="1">
          <mxGeometry x="227" y="120" width="55" height="30" as="geometry"/>
        </mxCell>
        <mxCell id="JRNA4fRLngx2gmoM5VyH-34" value="first name" style="ellipse;whiteSpace=wrap;html=1;" parent="1" vertex="1">
          <mxGeometry x="397" y="115" width="55" height="30" as="geometry"/>
        </mxCell>
        <mxCell id="JRNA4fRLngx2gmoM5VyH-35" value="start date" style="ellipse;whiteSpace=wrap;html=1;" parent="1" vertex="1">
          <mxGeometry x="144.5" y="283" width="55" height="30" as="geometry"/>
        </mxCell>
        <mxCell id="JRNA4fRLngx2gmoM5VyH-36" value="&lt;u&gt;email&lt;/u&gt;" style="ellipse;whiteSpace=wrap;html=1;" parent="1" vertex="1">
          <mxGeometry x="314.5" y="100" width="55" height="30" as="geometry"/>
        </mxCell>
        <mxCell id="JRNA4fRLngx2gmoM5VyH-37" value="total amount paied" style="ellipse;whiteSpace=wrap;html=1;dashed=1;" parent="1" vertex="1">
          <mxGeometry x="227" y="330" width="60" height="50" as="geometry"/>
        </mxCell>
        <mxCell id="JRNA4fRLngx2gmoM5VyH-40" value="" style="endArrow=none;html=1;entryX=0.5;entryY=1;entryDx=0;entryDy=0;" parent="1" target="JRNA4fRLngx2gmoM5VyH-36" edge="1">
          <mxGeometry width="50" height="50" relative="1" as="geometry">
            <mxPoint x="342" y="160" as="sourcePoint"/>
            <mxPoint x="342.5" y="125" as="targetPoint"/>
          </mxGeometry>
        </mxCell>
        <mxCell id="JRNA4fRLngx2gmoM5VyH-41" value="" style="endArrow=none;html=1;entryX=1;entryY=0.5;entryDx=0;entryDy=0;exitX=0;exitY=0.5;exitDx=0;exitDy=0;" parent="1" source="JRNA4fRLngx2gmoM5VyH-17" target="JRNA4fRLngx2gmoM5VyH-35" edge="1">
          <mxGeometry width="50" height="50" relative="1" as="geometry">
            <mxPoint x="424.5" y="448" as="sourcePoint"/>
            <mxPoint x="392.5" y="448" as="targetPoint"/>
          </mxGeometry>
        </mxCell>
        <mxCell id="JRNA4fRLngx2gmoM5VyH-42" value="" style="endArrow=none;html=1;exitX=0.5;exitY=0;exitDx=0;exitDy=0;entryX=0.5;entryY=1;entryDx=0;entryDy=0;" parent="1" source="JRNA4fRLngx2gmoM5VyH-37" target="JRNA4fRLngx2gmoM5VyH-17" edge="1">
          <mxGeometry width="50" height="50" relative="1" as="geometry">
            <mxPoint x="257" y="340" as="sourcePoint"/>
            <mxPoint x="257.5" y="313" as="targetPoint"/>
          </mxGeometry>
        </mxCell>
        <mxCell id="JRNA4fRLngx2gmoM5VyH-48" value="" style="endArrow=none;html=1;entryX=1;entryY=0.5;entryDx=0;entryDy=0;exitX=0;exitY=0.5;exitDx=0;exitDy=0;" parent="1" source="JRNA4fRLngx2gmoM5VyH-34" target="JRNA4fRLngx2gmoM5VyH-15" edge="1">
          <mxGeometry width="50" height="50" relative="1" as="geometry">
            <mxPoint x="232" y="280" as="sourcePoint"/>
            <mxPoint x="209.5" y="280" as="targetPoint"/>
          </mxGeometry>
        </mxCell>
        <mxCell id="JRNA4fRLngx2gmoM5VyH-49" value="" style="endArrow=none;html=1;exitX=0;exitY=0.5;exitDx=0;exitDy=0;entryX=1;entryY=0.5;entryDx=0;entryDy=0;" parent="1" source="JRNA4fRLngx2gmoM5VyH-15" target="JRNA4fRLngx2gmoM5VyH-33" edge="1">
          <mxGeometry width="50" height="50" relative="1" as="geometry">
            <mxPoint x="242" y="290" as="sourcePoint"/>
            <mxPoint x="164.5" y="360" as="targetPoint"/>
          </mxGeometry>
        </mxCell>
        <mxCell id="JRNA4fRLngx2gmoM5VyH-51" value="contributor" style="rounded=0;whiteSpace=wrap;html=1;direction=west;" parent="1" vertex="1">
          <mxGeometry x="527.5" y="282.5" width="70" height="30" as="geometry"/>
        </mxCell>
        <mxCell id="JRNA4fRLngx2gmoM5VyH-54" value="contributing" style="rhombus;whiteSpace=wrap;html=1;strokeColor=#000000;" parent="1" vertex="1">
          <mxGeometry x="517.5" y="358.5" width="90" height="48" as="geometry"/>
        </mxCell>
        <mxCell id="JRNA4fRLngx2gmoM5VyH-56" value="" style="endArrow=none;html=1;entryX=0.5;entryY=0;entryDx=0;entryDy=0;exitX=0.5;exitY=0;exitDx=0;exitDy=0;" parent="1" source="JRNA4fRLngx2gmoM5VyH-51" target="JRNA4fRLngx2gmoM5VyH-54" edge="1">
          <mxGeometry width="50" height="50" relative="1" as="geometry">
            <mxPoint x="433.5" y="624.5" as="sourcePoint"/>
            <mxPoint x="562.5" y="368.5" as="targetPoint"/>
          </mxGeometry>
        </mxCell>
        <mxCell id="JRNA4fRLngx2gmoM5VyH-57" value="" style="endArrow=none;html=1;entryX=0.5;entryY=0;entryDx=0;entryDy=0;exitX=0.5;exitY=1;exitDx=0;exitDy=0;" parent="1" source="JRNA4fRLngx2gmoM5VyH-54" target="JRNA4fRLngx2gmoM5VyH-2" edge="1">
          <mxGeometry width="50" height="50" relative="1" as="geometry">
            <mxPoint x="285" y="634.5" as="sourcePoint"/>
            <mxPoint x="335" y="584.5" as="targetPoint"/>
          </mxGeometry>
        </mxCell>
        <mxCell id="JRNA4fRLngx2gmoM5VyH-60" value="help" style="rhombus;whiteSpace=wrap;html=1;strokeColor=#000000;" parent="1" vertex="1">
          <mxGeometry x="409" y="275" width="68" height="45" as="geometry"/>
        </mxCell>
        <mxCell id="JRNA4fRLngx2gmoM5VyH-61" value="" style="endArrow=none;html=1;entryX=0;entryY=0.5;entryDx=0;entryDy=0;exitX=1;exitY=0.5;exitDx=0;exitDy=0;" parent="1" source="JRNA4fRLngx2gmoM5VyH-16" target="JRNA4fRLngx2gmoM5VyH-60" edge="1">
          <mxGeometry width="50" height="50" relative="1" as="geometry">
            <mxPoint x="144.5" y="948" as="sourcePoint"/>
            <mxPoint x="194.5" y="898" as="targetPoint"/>
          </mxGeometry>
        </mxCell>
        <mxCell id="JRNA4fRLngx2gmoM5VyH-63" value="solve" style="rhombus;whiteSpace=wrap;html=1;strokeColor=#000000;" parent="1" vertex="1">
          <mxGeometry x="623.5" y="150" width="80" height="50" as="geometry"/>
        </mxCell>
        <mxCell id="JRNA4fRLngx2gmoM5VyH-64" value="" style="endArrow=none;html=1;entryX=0;entryY=0.5;entryDx=0;entryDy=0;exitX=1;exitY=0.5;exitDx=0;exitDy=0;" parent="1" source="JRNA4fRLngx2gmoM5VyH-15" target="JRNA4fRLngx2gmoM5VyH-63" edge="1">
          <mxGeometry width="50" height="50" relative="1" as="geometry">
            <mxPoint x="374.5" y="180" as="sourcePoint"/>
            <mxPoint x="194.5" y="540" as="targetPoint"/>
          </mxGeometry>
        </mxCell>
        <mxCell id="JRNA4fRLngx2gmoM5VyH-65" value="" style="endArrow=none;html=1;entryX=0.5;entryY=1;entryDx=0;entryDy=0;exitX=1;exitY=0.5;exitDx=0;exitDy=0;" parent="1" source="JRNA4fRLngx2gmoM5VyH-2" target="JRNA4fRLngx2gmoM5VyH-63" edge="1">
          <mxGeometry width="50" height="50" relative="1" as="geometry">
            <mxPoint x="222" y="590" as="sourcePoint"/>
            <mxPoint x="272" y="540" as="targetPoint"/>
            <Array as="points">
              <mxPoint x="663.5" y="476"/>
            </Array>
          </mxGeometry>
        </mxCell>
        <mxCell id="JRNA4fRLngx2gmoM5VyH-66" value="#revisions" style="ellipse;whiteSpace=wrap;html=1;" parent="1" vertex="1">
          <mxGeometry x="408" y="235" width="69" height="28" as="geometry"/>
        </mxCell>
        <mxCell id="JRNA4fRLngx2gmoM5VyH-67" value="" style="endArrow=none;html=1;entryX=0.5;entryY=0;entryDx=0;entryDy=0;exitX=0.5;exitY=1;exitDx=0;exitDy=0;" parent="1" source="JRNA4fRLngx2gmoM5VyH-66" target="JRNA4fRLngx2gmoM5VyH-60" edge="1">
          <mxGeometry width="50" height="50" relative="1" as="geometry">
            <mxPoint x="217.5" y="607.5" as="sourcePoint"/>
            <mxPoint x="267.5" y="557.5" as="targetPoint"/>
          </mxGeometry>
        </mxCell>
        <mxCell id="JRNA4fRLngx2gmoM5VyH-68" value="d" style="ellipse;whiteSpace=wrap;html=1;aspect=fixed;strokeColor=#000000;" parent="1" vertex="1">
          <mxGeometry x="547.5" y="574.5" width="30" height="30" as="geometry"/>
        </mxCell>
        <mxCell id="JRNA4fRLngx2gmoM5VyH-70" value="" style="endArrow=none;html=1;entryX=0.5;entryY=1;entryDx=0;entryDy=0;exitX=0.5;exitY=0;exitDx=0;exitDy=0;" parent="1" source="JRNA4fRLngx2gmoM5VyH-68" target="JRNA4fRLngx2gmoM5VyH-2" edge="1">
          <mxGeometry width="50" height="50" relative="1" as="geometry">
            <mxPoint x="17.5" y="609.5" as="sourcePoint"/>
            <mxPoint x="67.5" y="559.5" as="targetPoint"/>
          </mxGeometry>
        </mxCell>
        <mxCell id="JRNA4fRLngx2gmoM5VyH-71" value="Kind" style="text;html=1;strokeColor=none;fillColor=none;align=center;verticalAlign=middle;whiteSpace=wrap;rounded=0;" parent="1" vertex="1">
          <mxGeometry x="557.5" y="530.5" width="40" height="20" as="geometry"/>
        </mxCell>
        <mxCell id="JRNA4fRLngx2gmoM5VyH-72" style="edgeStyle=none;rounded=1;orthogonalLoop=1;jettySize=auto;html=1;exitX=0.75;exitY=1;exitDx=0;exitDy=0;" parent="1" edge="1">
          <mxGeometry relative="1" as="geometry">
            <mxPoint x="587.5" y="570" as="sourcePoint"/>
            <mxPoint x="587.5" y="570" as="targetPoint"/>
          </mxGeometry>
        </mxCell>
        <mxCell id="JRNA4fRLngx2gmoM5VyH-73" value="algorithm design problems" style="rounded=0;whiteSpace=wrap;html=1;strokeColor=#000000;" parent="1" vertex="1">
          <mxGeometry x="421.5" y="634" width="66" height="50" as="geometry"/>
        </mxCell>
        <mxCell id="JRNA4fRLngx2gmoM5VyH-74" value="database query problems" style="rounded=0;whiteSpace=wrap;html=1;strokeColor=#000000;" parent="1" vertex="1">
          <mxGeometry x="527.5" y="634" width="70" height="50" as="geometry"/>
        </mxCell>
        <mxCell id="JRNA4fRLngx2gmoM5VyH-75" value="data structure design problems" style="rounded=0;whiteSpace=wrap;html=1;strokeColor=#000000;" parent="1" vertex="1">
          <mxGeometry x="633.5" y="634" width="70" height="60" as="geometry"/>
        </mxCell>
        <mxCell id="JRNA4fRLngx2gmoM5VyH-82" value="" style="edgeStyle=orthogonalEdgeStyle;fontSize=12;html=1;endArrow=ERmany;entryX=0;entryY=0.5;entryDx=0;entryDy=0;exitX=0.5;exitY=0;exitDx=0;exitDy=0;" parent="1" source="JRNA4fRLngx2gmoM5VyH-73" target="JRNA4fRLngx2gmoM5VyH-68" edge="1">
          <mxGeometry width="100" height="100" relative="1" as="geometry">
            <mxPoint x="187.5" y="904" as="sourcePoint"/>
            <mxPoint x="287.5" y="804" as="targetPoint"/>
          </mxGeometry>
        </mxCell>
        <mxCell id="JRNA4fRLngx2gmoM5VyH-83" value="" style="fontSize=12;html=1;endArrow=ERmany;entryX=0.5;entryY=1;entryDx=0;entryDy=0;exitX=0.5;exitY=0;exitDx=0;exitDy=0;" parent="1" source="JRNA4fRLngx2gmoM5VyH-74" target="JRNA4fRLngx2gmoM5VyH-68" edge="1">
          <mxGeometry width="100" height="100" relative="1" as="geometry">
            <mxPoint x="187.5" y="904" as="sourcePoint"/>
            <mxPoint x="287.5" y="804" as="targetPoint"/>
          </mxGeometry>
        </mxCell>
        <mxCell id="JRNA4fRLngx2gmoM5VyH-84" value="" style="edgeStyle=orthogonalEdgeStyle;fontSize=12;html=1;endArrow=ERmany;entryX=1;entryY=0.5;entryDx=0;entryDy=0;exitX=0.5;exitY=0;exitDx=0;exitDy=0;" parent="1" source="JRNA4fRLngx2gmoM5VyH-75" target="JRNA4fRLngx2gmoM5VyH-68" edge="1">
          <mxGeometry width="100" height="100" relative="1" as="geometry">
            <mxPoint x="187.5" y="904" as="sourcePoint"/>
            <mxPoint x="287.5" y="804" as="targetPoint"/>
          </mxGeometry>
        </mxCell>
        <mxCell id="JRNA4fRLngx2gmoM5VyH-87" value="" style="edgeStyle=orthogonalEdgeStyle;fontSize=12;html=1;endArrow=ERmany;entryX=1;entryY=0.5;entryDx=0;entryDy=0;exitX=0.5;exitY=1;exitDx=0;exitDy=0;" parent="1" source="JRNA4fRLngx2gmoM5VyH-51" target="JRNA4fRLngx2gmoM5VyH-19" edge="1">
          <mxGeometry width="100" height="100" relative="1" as="geometry">
            <mxPoint x="144.5" y="830" as="sourcePoint"/>
            <mxPoint x="244.5" y="730" as="targetPoint"/>
          </mxGeometry>
        </mxCell>
        <mxCell id="JRNA4fRLngx2gmoM5VyH-92" value="(0,m)" style="text;html=1;strokeColor=none;fillColor=none;align=center;verticalAlign=middle;whiteSpace=wrap;rounded=0;" parent="1" vertex="1">
          <mxGeometry x="480.5" y="155" width="40" height="20" as="geometry"/>
        </mxCell>
        <mxCell id="JRNA4fRLngx2gmoM5VyH-94" value="(0,n)" style="text;html=1;strokeColor=none;fillColor=none;align=center;verticalAlign=middle;whiteSpace=wrap;rounded=0;" parent="1" vertex="1">
          <mxGeometry x="663.5" y="318" width="40" height="20" as="geometry"/>
        </mxCell>
        <mxCell id="JRNA4fRLngx2gmoM5VyH-95" value="(1,1)" style="text;html=1;strokeColor=none;fillColor=none;align=center;verticalAlign=middle;whiteSpace=wrap;rounded=0;" parent="1" vertex="1">
          <mxGeometry x="557.5" y="325.5" width="40" height="20" as="geometry"/>
        </mxCell>
        <mxCell id="JRNA4fRLngx2gmoM5VyH-97" value="(0,n)" style="text;html=1;strokeColor=none;fillColor=none;align=center;verticalAlign=middle;whiteSpace=wrap;rounded=0;" parent="1" vertex="1">
          <mxGeometry x="557.5" y="423.5" width="40" height="20" as="geometry"/>
        </mxCell>
        <mxCell id="JRNA4fRLngx2gmoM5VyH-99" value="Problem pools" style="rounded=0;whiteSpace=wrap;html=1;strokeColor=#000000;" parent="1" vertex="1">
          <mxGeometry x="277.5" y="458" width="59" height="35" as="geometry"/>
        </mxCell>
        <mxCell id="JRNA4fRLngx2gmoM5VyH-102" value="&lt;u&gt;name&lt;/u&gt;" style="ellipse;whiteSpace=wrap;html=1;strokeColor=#000000;" parent="1" vertex="1">
          <mxGeometry x="282" y="406.5" width="50" height="30" as="geometry"/>
        </mxCell>
        <mxCell id="JRNA4fRLngx2gmoM5VyH-103" value="" style="endArrow=none;html=1;entryX=0.5;entryY=1;entryDx=0;entryDy=0;exitX=0.5;exitY=0;exitDx=0;exitDy=0;" parent="1" source="JRNA4fRLngx2gmoM5VyH-99" target="JRNA4fRLngx2gmoM5VyH-102" edge="1">
          <mxGeometry width="50" height="50" relative="1" as="geometry">
            <mxPoint x="92.5" y="710" as="sourcePoint"/>
            <mxPoint x="142.5" y="660" as="targetPoint"/>
          </mxGeometry>
        </mxCell>
        <mxCell id="JRNA4fRLngx2gmoM5VyH-105" value="create" style="rhombus;whiteSpace=wrap;html=1;strokeColor=#000000;" parent="1" vertex="1">
          <mxGeometry x="40" y="303" width="80" height="50" as="geometry"/>
        </mxCell>
        <mxCell id="JRNA4fRLngx2gmoM5VyH-106" value="" style="endArrow=none;html=1;entryX=0;entryY=0.5;entryDx=0;entryDy=0;exitX=0.5;exitY=0;exitDx=0;exitDy=0;" parent="1" source="JRNA4fRLngx2gmoM5VyH-105" target="JRNA4fRLngx2gmoM5VyH-15" edge="1">
          <mxGeometry width="50" height="50" relative="1" as="geometry">
            <mxPoint x="-50" y="710" as="sourcePoint"/>
            <mxPoint y="660" as="targetPoint"/>
            <Array as="points">
              <mxPoint x="80" y="175"/>
            </Array>
          </mxGeometry>
        </mxCell>
        <mxCell id="JRNA4fRLngx2gmoM5VyH-107" value="" style="endArrow=none;html=1;entryX=0.5;entryY=1;entryDx=0;entryDy=0;exitX=0;exitY=0.5;exitDx=0;exitDy=0;" parent="1" source="JRNA4fRLngx2gmoM5VyH-99" target="JRNA4fRLngx2gmoM5VyH-105" edge="1">
          <mxGeometry width="50" height="50" relative="1" as="geometry">
            <mxPoint x="40" y="710" as="sourcePoint"/>
            <mxPoint x="90" y="660" as="targetPoint"/>
            <Array as="points">
              <mxPoint x="80" y="476"/>
            </Array>
          </mxGeometry>
        </mxCell>
        <mxCell id="JRNA4fRLngx2gmoM5VyH-108" value="(0,n)" style="text;html=1;strokeColor=none;fillColor=none;align=center;verticalAlign=middle;whiteSpace=wrap;rounded=0;" parent="1" vertex="1">
          <mxGeometry x="152" y="455.5" width="40" height="20" as="geometry"/>
        </mxCell>
        <mxCell id="JRNA4fRLngx2gmoM5VyH-110" value="(1,1)" style="text;html=1;strokeColor=none;fillColor=none;align=center;verticalAlign=middle;whiteSpace=wrap;rounded=0;" parent="1" vertex="1">
          <mxGeometry x="152" y="155" width="40" height="20" as="geometry"/>
        </mxCell>
        <mxCell id="JRNA4fRLngx2gmoM5VyH-111" value="contains" style="rhombus;whiteSpace=wrap;html=1;strokeColor=#000000;" parent="1" vertex="1">
          <mxGeometry x="386" y="460.5" width="66" height="31" as="geometry"/>
        </mxCell>
        <mxCell id="JRNA4fRLngx2gmoM5VyH-112" value="" style="endArrow=none;html=1;entryX=0;entryY=0.5;entryDx=0;entryDy=0;exitX=1;exitY=0.5;exitDx=0;exitDy=0;" parent="1" source="JRNA4fRLngx2gmoM5VyH-99" target="JRNA4fRLngx2gmoM5VyH-111" edge="1">
          <mxGeometry width="50" height="50" relative="1" as="geometry">
            <mxPoint x="40" y="770" as="sourcePoint"/>
            <mxPoint x="90" y="720" as="targetPoint"/>
          </mxGeometry>
        </mxCell>
        <mxCell id="JRNA4fRLngx2gmoM5VyH-113" value="" style="endArrow=none;html=1;entryX=0;entryY=0.5;entryDx=0;entryDy=0;exitX=1;exitY=0.5;exitDx=0;exitDy=0;" parent="1" source="JRNA4fRLngx2gmoM5VyH-111" target="JRNA4fRLngx2gmoM5VyH-2" edge="1">
          <mxGeometry width="50" height="50" relative="1" as="geometry">
            <mxPoint x="40" y="770" as="sourcePoint"/>
            <mxPoint x="90" y="720" as="targetPoint"/>
          </mxGeometry>
        </mxCell>
        <mxCell id="JRNA4fRLngx2gmoM5VyH-114" value="(0,m)" style="text;html=1;strokeColor=none;fillColor=none;align=center;verticalAlign=middle;whiteSpace=wrap;rounded=0;" parent="1" vertex="1">
          <mxGeometry x="463" y="456" width="40" height="20" as="geometry"/>
        </mxCell>
        <mxCell id="lrOaRi5hVM4plKfe-8ar-1" value="" style="endArrow=none;html=1;entryX=0;entryY=0.5;entryDx=0;entryDy=0;exitX=1;exitY=0.5;exitDx=0;exitDy=0;" edge="1" parent="1" source="lrOaRi5hVM4plKfe-8ar-2" target="JRNA4fRLngx2gmoM5VyH-73">
          <mxGeometry width="50" height="50" relative="1" as="geometry">
            <mxPoint x="360" y="659" as="sourcePoint"/>
            <mxPoint x="90" y="720" as="targetPoint"/>
          </mxGeometry>
        </mxCell>
        <mxCell id="lrOaRi5hVM4plKfe-8ar-2" value="build upon" style="rhombus;whiteSpace=wrap;html=1;" vertex="1" parent="1">
          <mxGeometry x="250.5" y="639" width="83" height="40" as="geometry"/>
        </mxCell>
        <mxCell id="lrOaRi5hVM4plKfe-8ar-3" value="" style="endArrow=none;html=1;entryX=0.5;entryY=1;entryDx=0;entryDy=0;exitX=0.5;exitY=1;exitDx=0;exitDy=0;" edge="1" parent="1" source="JRNA4fRLngx2gmoM5VyH-73" target="lrOaRi5hVM4plKfe-8ar-2">
          <mxGeometry width="50" height="50" relative="1" as="geometry">
            <mxPoint x="40" y="770" as="sourcePoint"/>
            <mxPoint x="90" y="720" as="targetPoint"/>
            <Array as="points">
              <mxPoint x="455" y="720"/>
              <mxPoint x="292" y="720"/>
            </Array>
          </mxGeometry>
        </mxCell>
        <mxCell id="lrOaRi5hVM4plKfe-8ar-4" value="derived problem (0,1)" style="text;html=1;strokeColor=none;fillColor=none;align=center;verticalAlign=middle;whiteSpace=wrap;rounded=0;" vertex="1" parent="1">
          <mxGeometry x="354.5" y="730" width="40" height="20" as="geometry"/>
        </mxCell>
        <mxCell id="lrOaRi5hVM4plKfe-8ar-5" value="original problem (0,n)" style="text;html=1;strokeColor=none;fillColor=none;align=center;verticalAlign=middle;whiteSpace=wrap;rounded=0;" vertex="1" parent="1">
          <mxGeometry x="357.5" y="624" width="40" height="20" as="geometry"/>
        </mxCell>
        <mxCell id="lrOaRi5hVM4plKfe-8ar-9" value="" style="endArrow=none;html=1;entryX=0.5;entryY=1;entryDx=0;entryDy=0;exitX=0.5;exitY=0;exitDx=0;exitDy=0;" edge="1" parent="1" source="JRNA4fRLngx2gmoM5VyH-2" target="JRNA4fRLngx2gmoM5VyH-60">
          <mxGeometry width="50" height="50" relative="1" as="geometry">
            <mxPoint x="40" y="830" as="sourcePoint"/>
            <mxPoint x="90" y="780" as="targetPoint"/>
          </mxGeometry>
        </mxCell>
        <mxCell id="lrOaRi5hVM4plKfe-8ar-11" value="(1,1)" style="text;html=1;strokeColor=none;fillColor=none;align=center;verticalAlign=middle;whiteSpace=wrap;rounded=0;" vertex="1" parent="1">
          <mxGeometry x="374.5" y="278" width="40" height="20" as="geometry"/>
        </mxCell>
        <mxCell id="lrOaRi5hVM4plKfe-8ar-12" value="(0,n)" style="text;html=1;strokeColor=none;fillColor=none;align=center;verticalAlign=middle;whiteSpace=wrap;rounded=0;" vertex="1" parent="1">
          <mxGeometry x="477" y="349.5" width="40" height="20" as="geometry"/>
        </mxCell>
        <mxCell id="lrOaRi5hVM4plKfe-8ar-13" value="(0,n)" style="text;html=1;strokeColor=none;fillColor=none;align=center;verticalAlign=middle;whiteSpace=wrap;rounded=0;" vertex="1" parent="1">
          <mxGeometry x="343" y="456" width="40" height="20" as="geometry"/>
        </mxCell>
      </root>
    </mxGraphModel>
  </diagram>
</mxfile>
